<?xml version="1.0" encoding="utf-8"?>
<!-- Generator: Adobe Illustrator 23.0.6, SVG Export Plug-In . SVG Version: 6.00 Build 0)  -->
<svg version="1.1" id="Capa_1" xmlns="http://www.w3.org/2000/svg" xmlns:xlink="http://www.w3.org/1999/xlink" x="0px" y="0px"
	 viewBox="0 0 512 512" style="enable-background:new 0 0 512 512;" xml:space="preserve">
<style type="text/css">
	.st0{fill:#196EBD;}
	.st1{fill:#91457F;}
</style>
<g>
	<g>
		<g>
			<path class="st0" d="M437,75C388.7,26.6,324.4,0,256,0S123.3,26.6,75,75C26.6,123.3,0,187.6,0,256s26.6,132.7,75,181
				c48.4,48.4,112.6,75,181,75s132.7-26.6,181-75c48.4-48.4,75-112.6,75-181S485.4,123.3,437,75z M426.4,426.4
				C380.9,471.9,320.4,497,256,497s-124.9-25.1-170.4-70.6S15,320.4,15,256S40.1,131.1,85.6,85.6S191.6,15,256,15
				s124.9,25.1,170.4,70.6S497,191.6,497,256S471.9,380.9,426.4,426.4z"/>
		</g>
	</g>
	<g>
		<g>
			<path class="st1" d="M364.7,224.7c-1.3-2.6-3.9-4.2-6.7-4.2h-78.5l33.6-69.6c1.8-3.7,0.2-8.2-3.5-10c-3.7-1.8-8.2-0.2-10,3.5
				l-38.8,80.4c-1.1,2.3-1,5.1,0.4,7.3c1.4,2.2,3.8,3.5,6.4,3.5h75.2l-121,157.4l38.1-121.2c0.7-2.3,0.3-4.8-1.1-6.7
				c-1.4-1.9-3.7-3.1-6-3.1H181l49.9-150.7h84.7l-2.2,4.6c-1.8,3.7-0.2,8.2,3.5,10c3.7,1.8,8.2,0.2,10-3.5l7.4-15.3
				c1.1-2.3,1-5.1-0.4-7.3s-3.8-3.5-6.4-3.5h-102c-3.2,0-6.1,2.1-7.1,5.1l-54.9,165.7c-0.8,2.3-0.4,4.8,1,6.8s3.7,3.1,6.1,3.1h71.8
				l-47.7,151.8c-1.1,3.5,0.5,7.2,3.7,8.9c1.1,0.6,2.3,0.8,3.5,0.8c2.3,0,4.5-1,5.9-2.9l156.1-203
				C365.6,230.3,365.9,227.2,364.7,224.7z"/>
		</g>
	</g>
</g>
</svg>
